<svg width="1921" height="1080" viewBox="0 0 1921 1080" fill="none" xmlns="http://www.w3.org/2000/svg">
<rect width="1920" height="1080" transform="translate(1)" fill="white"/>
<path fill-rule="evenodd" clip-rule="evenodd" d="M1920 0H0V450C0 390.305 429.807 341.912 960 341.912C1490.19 341.912 1920 390.305 1920 450V0Z" fill="#4210A9"/>
<path d="M826.32 341V313H832.8V341H826.32ZM852.085 319.16C853.792 319.16 855.312 319.507 856.645 320.2C858.005 320.867 859.072 321.907 859.845 323.32C860.618 324.707 861.005 326.493 861.005 328.68V341H854.765V329.64C854.765 327.907 854.378 326.627 853.605 325.8C852.858 324.973 851.792 324.56 850.405 324.56C849.418 324.56 848.525 324.773 847.725 325.2C846.952 325.6 846.338 326.227 845.885 327.08C845.458 327.933 845.245 329.027 845.245 330.36V341H839.005V319.48H844.965V325.44L843.845 323.64C844.618 322.2 845.725 321.093 847.165 320.32C848.605 319.547 850.245 319.16 852.085 319.16ZM866.661 341V319.48H872.901V341H866.661ZM869.781 316.48C868.635 316.48 867.701 316.147 866.981 315.48C866.261 314.813 865.901 313.987 865.901 313C865.901 312.013 866.261 311.187 866.981 310.52C867.701 309.853 868.635 309.52 869.781 309.52C870.928 309.52 871.861 309.84 872.581 310.48C873.301 311.093 873.661 311.893 873.661 312.88C873.661 313.92 873.301 314.787 872.581 315.48C871.888 316.147 870.955 316.48 869.781 316.48ZM889.093 341.32C886.773 341.32 884.706 340.853 882.893 339.92C881.079 338.96 879.653 337.64 878.613 335.96C877.599 334.28 877.093 332.373 877.093 330.24C877.093 328.08 877.599 326.173 878.613 324.52C879.653 322.84 881.079 321.533 882.893 320.6C884.706 319.64 886.773 319.16 889.093 319.16C891.359 319.16 893.333 319.64 895.013 320.6C896.693 321.533 897.933 322.88 898.733 324.64L893.893 327.24C893.333 326.227 892.626 325.48 891.773 325C890.946 324.52 890.039 324.28 889.053 324.28C887.986 324.28 887.026 324.52 886.173 325C885.319 325.48 884.639 326.16 884.133 327.04C883.653 327.92 883.413 328.987 883.413 330.24C883.413 331.493 883.653 332.56 884.133 333.44C884.639 334.32 885.319 335 886.173 335.48C887.026 335.96 887.986 336.2 889.053 336.2C890.039 336.2 890.946 335.973 891.773 335.52C892.626 335.04 893.333 334.28 893.893 333.24L898.733 335.88C897.933 337.613 896.693 338.96 895.013 339.92C893.333 340.853 891.359 341.32 889.093 341.32ZM902.208 341V319.48H908.448V341H902.208ZM905.328 316.48C904.181 316.48 903.248 316.147 902.528 315.48C901.808 314.813 901.448 313.987 901.448 313C901.448 312.013 901.808 311.187 902.528 310.52C903.248 309.853 904.181 309.52 905.328 309.52C906.475 309.52 907.408 309.84 908.128 310.48C908.848 311.093 909.208 311.893 909.208 312.88C909.208 313.92 908.848 314.787 908.128 315.48C907.435 316.147 906.501 316.48 905.328 316.48ZM927.439 341V336.8L927.039 335.88V328.36C927.039 327.027 926.626 325.987 925.799 325.24C924.999 324.493 923.759 324.12 922.079 324.12C920.933 324.12 919.799 324.307 918.679 324.68C917.586 325.027 916.653 325.507 915.879 326.12L913.639 321.76C914.813 320.933 916.226 320.293 917.879 319.84C919.533 319.387 921.213 319.16 922.919 319.16C926.199 319.16 928.746 319.933 930.559 321.48C932.373 323.027 933.279 325.44 933.279 328.72V341H927.439ZM920.879 341.32C919.199 341.32 917.759 341.04 916.559 340.48C915.359 339.893 914.439 339.107 913.799 338.12C913.159 337.133 912.839 336.027 912.839 334.8C912.839 333.52 913.146 332.4 913.759 331.44C914.399 330.48 915.399 329.733 916.759 329.2C918.119 328.64 919.893 328.36 922.079 328.36H927.799V332H922.759C921.293 332 920.279 332.24 919.719 332.72C919.186 333.2 918.919 333.8 918.919 334.52C918.919 335.32 919.226 335.96 919.839 336.44C920.479 336.893 921.346 337.12 922.439 337.12C923.479 337.12 924.413 336.88 925.239 336.4C926.066 335.893 926.666 335.16 927.039 334.2L927.999 337.08C927.546 338.467 926.719 339.52 925.519 340.24C924.319 340.96 922.773 341.32 920.879 341.32ZM938.927 341V319.48H944.887V325.56L944.047 323.8C944.687 322.28 945.714 321.133 947.127 320.36C948.54 319.56 950.26 319.16 952.287 319.16V324.92C952.02 324.893 951.78 324.88 951.567 324.88C951.354 324.853 951.127 324.84 950.887 324.84C949.18 324.84 947.794 325.333 946.727 326.32C945.687 327.28 945.167 328.787 945.167 330.84V341H938.927ZM974.722 341.32C972.882 341.32 971.108 341.107 969.402 340.68C967.722 340.227 966.388 339.667 965.402 339L967.482 334.52C968.468 335.133 969.628 335.64 970.962 336.04C972.322 336.413 973.655 336.6 974.962 336.6C976.402 336.6 977.415 336.427 978.002 336.08C978.615 335.733 978.922 335.253 978.922 334.64C978.922 334.133 978.682 333.76 978.202 333.52C977.748 333.253 977.135 333.053 976.362 332.92C975.588 332.787 974.735 332.653 973.802 332.52C972.895 332.387 971.975 332.213 971.042 332C970.108 331.76 969.255 331.413 968.482 330.96C967.708 330.507 967.082 329.893 966.602 329.12C966.148 328.347 965.922 327.347 965.922 326.12C965.922 324.76 966.308 323.56 967.082 322.52C967.882 321.48 969.028 320.667 970.522 320.08C972.015 319.467 973.802 319.16 975.882 319.16C977.348 319.16 978.842 319.32 980.362 319.64C981.882 319.96 983.148 320.427 984.162 321.04L982.082 325.48C981.042 324.867 979.988 324.453 978.922 324.24C977.882 324 976.868 323.88 975.882 323.88C974.495 323.88 973.482 324.067 972.842 324.44C972.202 324.813 971.882 325.293 971.882 325.88C971.882 326.413 972.108 326.813 972.562 327.08C973.042 327.347 973.668 327.56 974.442 327.72C975.215 327.88 976.055 328.027 976.962 328.16C977.895 328.267 978.828 328.44 979.762 328.68C980.695 328.92 981.535 329.267 982.282 329.72C983.055 330.147 983.682 330.747 984.162 331.52C984.642 332.267 984.882 333.253 984.882 334.48C984.882 335.813 984.482 337 983.682 338.04C982.882 339.053 981.722 339.853 980.202 340.44C978.708 341.027 976.882 341.32 974.722 341.32ZM999.412 341.32C996.958 341.32 994.798 340.84 992.932 339.88C991.092 338.92 989.665 337.613 988.652 335.96C987.638 334.28 987.132 332.373 987.132 330.24C987.132 328.08 987.625 326.173 988.612 324.52C989.625 322.84 990.998 321.533 992.732 320.6C994.465 319.64 996.425 319.16 998.612 319.16C1000.72 319.16 1002.61 319.613 1004.29 320.52C1006 321.4 1007.34 322.68 1008.33 324.36C1009.32 326.013 1009.81 328 1009.81 330.32C1009.81 330.56 1009.8 330.84 1009.77 331.16C1009.74 331.453 1009.72 331.733 1009.69 332H992.212V328.36H1006.41L1004.01 329.44C1004.01 328.32 1003.78 327.347 1003.33 326.52C1002.88 325.693 1002.25 325.053 1001.45 324.6C1000.65 324.12 999.718 323.88 998.652 323.88C997.585 323.88 996.638 324.12 995.812 324.6C995.012 325.053 994.385 325.707 993.932 326.56C993.478 327.387 993.252 328.373 993.252 329.52V330.48C993.252 331.653 993.505 332.693 994.012 333.6C994.545 334.48 995.278 335.16 996.212 335.64C997.172 336.093 998.292 336.32 999.572 336.32C1000.72 336.32 1001.72 336.147 1002.57 335.8C1003.45 335.453 1004.25 334.933 1004.97 334.24L1008.29 337.84C1007.3 338.96 1006.06 339.827 1004.57 340.44C1003.08 341.027 1001.36 341.32 999.412 341.32ZM1021.21 341.32C1019.37 341.32 1017.59 341.107 1015.89 340.68C1014.21 340.227 1012.87 339.667 1011.89 339L1013.97 334.52C1014.95 335.133 1016.11 335.64 1017.45 336.04C1018.81 336.413 1020.14 336.6 1021.45 336.6C1022.89 336.6 1023.9 336.427 1024.49 336.08C1025.1 335.733 1025.41 335.253 1025.41 334.64C1025.41 334.133 1025.17 333.76 1024.69 333.52C1024.23 333.253 1023.62 333.053 1022.85 332.92C1022.07 332.787 1021.22 332.653 1020.29 332.52C1019.38 332.387 1018.46 332.213 1017.53 332C1016.59 331.76 1015.74 331.413 1014.97 330.96C1014.19 330.507 1013.57 329.893 1013.09 329.12C1012.63 328.347 1012.41 327.347 1012.41 326.12C1012.41 324.76 1012.79 323.56 1013.57 322.52C1014.37 321.48 1015.51 320.667 1017.01 320.08C1018.5 319.467 1020.29 319.16 1022.37 319.16C1023.83 319.16 1025.33 319.32 1026.85 319.64C1028.37 319.96 1029.63 320.427 1030.65 321.04L1028.57 325.48C1027.53 324.867 1026.47 324.453 1025.41 324.24C1024.37 324 1023.35 323.88 1022.37 323.88C1020.98 323.88 1019.97 324.067 1019.33 324.44C1018.69 324.813 1018.37 325.293 1018.37 325.88C1018.37 326.413 1018.59 326.813 1019.05 327.08C1019.53 327.347 1020.15 327.56 1020.93 327.72C1021.7 327.88 1022.54 328.027 1023.45 328.16C1024.38 328.267 1025.31 328.44 1026.25 328.68C1027.18 328.92 1028.02 329.267 1028.77 329.72C1029.54 330.147 1030.17 330.747 1030.65 331.52C1031.13 332.267 1031.37 333.253 1031.37 334.48C1031.37 335.813 1030.97 337 1030.17 338.04C1029.37 339.053 1028.21 339.853 1026.69 340.44C1025.19 341.027 1023.37 341.32 1021.21 341.32ZM1035.22 341V319.48H1041.46V341H1035.22ZM1038.34 316.48C1037.19 316.48 1036.26 316.147 1035.54 315.48C1034.82 314.813 1034.46 313.987 1034.46 313C1034.46 312.013 1034.82 311.187 1035.54 310.52C1036.26 309.853 1037.19 309.52 1038.34 309.52C1039.48 309.52 1040.42 309.84 1041.14 310.48C1041.86 311.093 1042.22 311.893 1042.22 312.88C1042.22 313.92 1041.86 314.787 1041.14 315.48C1040.44 316.147 1039.51 316.48 1038.34 316.48ZM1057.49 341.32C1055.19 341.32 1053.15 340.84 1051.37 339.88C1049.61 338.92 1048.21 337.613 1047.17 335.96C1046.15 334.28 1045.65 332.373 1045.65 330.24C1045.65 328.08 1046.15 326.173 1047.17 324.52C1048.21 322.84 1049.61 321.533 1051.37 320.6C1053.15 319.64 1055.19 319.16 1057.49 319.16C1059.75 319.16 1061.78 319.64 1063.57 320.6C1065.35 321.533 1066.75 322.827 1067.77 324.48C1068.78 326.133 1069.29 328.053 1069.29 330.24C1069.29 332.373 1068.78 334.28 1067.77 335.96C1066.75 337.613 1065.35 338.92 1063.57 339.88C1061.78 340.84 1059.75 341.32 1057.49 341.32ZM1057.49 336.2C1058.53 336.2 1059.46 335.96 1060.29 335.48C1061.11 335 1061.77 334.32 1062.25 333.44C1062.73 332.533 1062.97 331.467 1062.97 330.24C1062.97 328.987 1062.73 327.92 1062.25 327.04C1061.77 326.16 1061.11 325.48 1060.29 325C1059.46 324.52 1058.53 324.28 1057.49 324.28C1056.45 324.28 1055.51 324.52 1054.69 325C1053.86 325.48 1053.19 326.16 1052.69 327.04C1052.21 327.92 1051.97 328.987 1051.97 330.24C1051.97 331.467 1052.21 332.533 1052.69 333.44C1053.19 334.32 1053.86 335 1054.69 335.48C1055.51 335.96 1056.45 336.2 1057.49 336.2ZM1053.77 316.72L1059.17 310.96H1065.89L1058.65 316.72H1053.77ZM1086.54 319.16C1088.24 319.16 1089.76 319.507 1091.1 320.2C1092.46 320.867 1093.52 321.907 1094.3 323.32C1095.07 324.707 1095.46 326.493 1095.46 328.68V341H1089.22V329.64C1089.22 327.907 1088.83 326.627 1088.06 325.8C1087.31 324.973 1086.24 324.56 1084.86 324.56C1083.87 324.56 1082.98 324.773 1082.18 325.2C1081.4 325.6 1080.79 326.227 1080.34 327.08C1079.91 327.933 1079.7 329.027 1079.7 330.36V341H1073.46V319.48H1079.42V325.44L1078.3 323.64C1079.07 322.2 1080.18 321.093 1081.62 320.32C1083.06 319.547 1084.7 319.16 1086.54 319.16Z" fill="#142EA9"/>
<path d="M885.736 750V733.2H887.512V750H885.736ZM899.05 737.28C900.074 737.28 900.97 737.48 901.738 737.88C902.522 738.264 903.13 738.856 903.562 739.656C904.01 740.456 904.234 741.464 904.234 742.68V750H902.53V742.848C902.53 741.52 902.194 740.52 901.522 739.848C900.866 739.16 899.938 738.816 898.738 738.816C897.842 738.816 897.058 739 896.386 739.368C895.73 739.72 895.218 740.24 894.85 740.928C894.498 741.6 894.322 742.416 894.322 743.376V750H892.618V737.4H894.25V740.856L893.986 740.208C894.386 739.296 895.026 738.584 895.906 738.072C896.786 737.544 897.834 737.28 899.05 737.28ZM908.837 750V737.4H910.541V750H908.837ZM909.701 734.616C909.349 734.616 909.053 734.496 908.813 734.256C908.573 734.016 908.453 733.728 908.453 733.392C908.453 733.056 908.573 732.776 908.813 732.552C909.053 732.312 909.349 732.192 909.701 732.192C910.053 732.192 910.349 732.304 910.589 732.528C910.829 732.752 910.949 733.032 910.949 733.368C910.949 733.72 910.829 734.016 910.589 734.256C910.365 734.496 910.069 734.616 909.701 734.616ZM920.514 750.12C919.266 750.12 918.146 749.848 917.154 749.304C916.178 748.744 915.41 747.984 914.85 747.024C914.29 746.048 914.01 744.936 914.01 743.688C914.01 742.424 914.29 741.312 914.85 740.352C915.41 739.392 916.178 738.64 917.154 738.096C918.146 737.552 919.266 737.28 920.514 737.28C921.586 737.28 922.554 737.488 923.418 737.904C924.282 738.32 924.962 738.944 925.458 739.776L924.186 740.64C923.754 740 923.218 739.528 922.578 739.224C921.938 738.92 921.242 738.768 920.49 738.768C919.594 738.768 918.786 738.976 918.066 739.392C917.346 739.792 916.778 740.36 916.362 741.096C915.946 741.832 915.738 742.696 915.738 743.688C915.738 744.68 915.946 745.544 916.362 746.28C916.778 747.016 917.346 747.592 918.066 748.008C918.786 748.408 919.594 748.608 920.49 748.608C921.242 748.608 921.938 748.456 922.578 748.152C923.218 747.848 923.754 747.384 924.186 746.76L925.458 747.624C924.962 748.44 924.282 749.064 923.418 749.496C922.554 749.912 921.586 750.12 920.514 750.12ZM928.618 750V737.4H930.322V750H928.618ZM929.482 734.616C929.13 734.616 928.834 734.496 928.594 734.256C928.354 734.016 928.234 733.728 928.234 733.392C928.234 733.056 928.354 732.776 928.594 732.552C928.834 732.312 929.13 732.192 929.482 732.192C929.834 732.192 930.13 732.304 930.37 732.528C930.61 732.752 930.73 733.032 930.73 733.368C930.73 733.72 930.61 734.016 930.37 734.256C930.146 734.496 929.85 734.616 929.482 734.616ZM942.96 750V747.216L942.888 746.76V742.104C942.888 741.032 942.584 740.208 941.976 739.632C941.384 739.056 940.496 738.768 939.312 738.768C938.496 738.768 937.72 738.904 936.984 739.176C936.248 739.448 935.624 739.808 935.112 740.256L934.344 738.984C934.984 738.44 935.752 738.024 936.648 737.736C937.544 737.432 938.488 737.28 939.48 737.28C941.112 737.28 942.368 737.688 943.248 738.504C944.144 739.304 944.592 740.528 944.592 742.176V750H942.96ZM938.616 750.12C937.672 750.12 936.848 749.968 936.144 749.664C935.456 749.344 934.928 748.912 934.56 748.368C934.192 747.808 934.008 747.168 934.008 746.448C934.008 745.792 934.16 745.2 934.464 744.672C934.784 744.128 935.296 743.696 936 743.376C936.72 743.04 937.68 742.872 938.88 742.872H943.224V744.144H938.928C937.712 744.144 936.864 744.36 936.384 744.792C935.92 745.224 935.688 745.76 935.688 746.4C935.688 747.12 935.968 747.696 936.528 748.128C937.088 748.56 937.872 748.776 938.88 748.776C939.84 748.776 940.664 748.56 941.352 748.128C942.056 747.68 942.568 747.04 942.888 746.208L943.272 747.384C942.952 748.216 942.392 748.88 941.592 749.376C940.808 749.872 939.816 750.12 938.616 750.12ZM949.22 750V737.4H950.852V740.832L950.684 740.232C951.036 739.272 951.628 738.544 952.46 738.048C953.292 737.536 954.324 737.28 955.556 737.28V738.936C955.492 738.936 955.428 738.936 955.364 738.936C955.3 738.92 955.236 738.912 955.172 738.912C953.844 738.912 952.804 739.32 952.052 740.136C951.3 740.936 950.924 742.08 950.924 743.568V750H949.22ZM968.518 750.12C967.478 750.12 966.494 749.976 965.566 749.688C964.638 749.384 963.91 749.008 963.382 748.56L964.15 747.216C964.662 747.6 965.318 747.936 966.118 748.224C966.918 748.496 967.758 748.632 968.638 748.632C969.838 748.632 970.702 748.448 971.23 748.08C971.758 747.696 972.022 747.192 972.022 746.568C972.022 746.104 971.87 745.744 971.566 745.488C971.278 745.216 970.894 745.016 970.414 744.888C969.934 744.744 969.398 744.624 968.806 744.528C968.214 744.432 967.622 744.32 967.03 744.192C966.454 744.064 965.926 743.88 965.446 743.64C964.966 743.384 964.574 743.04 964.27 742.608C963.982 742.176 963.838 741.6 963.838 740.88C963.838 740.192 964.03 739.576 964.414 739.032C964.798 738.488 965.358 738.064 966.094 737.76C966.846 737.44 967.758 737.28 968.83 737.28C969.646 737.28 970.462 737.392 971.278 737.616C972.094 737.824 972.766 738.104 973.294 738.456L972.55 739.824C971.99 739.44 971.39 739.168 970.75 739.008C970.11 738.832 969.47 738.744 968.83 738.744C967.694 738.744 966.854 738.944 966.31 739.344C965.782 739.728 965.518 740.224 965.518 740.832C965.518 741.312 965.662 741.688 965.95 741.96C966.254 742.232 966.646 742.448 967.126 742.608C967.622 742.752 968.158 742.872 968.734 742.968C969.326 743.064 969.91 743.184 970.486 743.328C971.078 743.456 971.614 743.64 972.094 743.88C972.59 744.104 972.982 744.432 973.27 744.864C973.574 745.28 973.726 745.832 973.726 746.52C973.726 747.256 973.518 747.896 973.102 748.44C972.702 748.968 972.11 749.384 971.326 749.688C970.558 749.976 969.622 750.12 968.518 750.12ZM982.205 750.12C980.893 750.12 979.741 749.848 978.749 749.304C977.757 748.744 976.981 747.984 976.421 747.024C975.861 746.048 975.581 744.936 975.581 743.688C975.581 742.44 975.845 741.336 976.373 740.376C976.917 739.416 977.653 738.664 978.581 738.12C979.525 737.56 980.581 737.28 981.749 737.28C982.933 737.28 983.981 737.552 984.893 738.096C985.821 738.624 986.549 739.376 987.077 740.352C987.605 741.312 987.869 742.424 987.869 743.688C987.869 743.768 987.861 743.856 987.845 743.952C987.845 744.032 987.845 744.12 987.845 744.216H976.877V742.944H986.933L986.261 743.448C986.261 742.536 986.061 741.728 985.661 741.024C985.277 740.304 984.749 739.744 984.077 739.344C983.405 738.944 982.629 738.744 981.749 738.744C980.885 738.744 980.109 738.944 979.421 739.344C978.733 739.744 978.197 740.304 977.813 741.024C977.429 741.744 977.237 742.568 977.237 743.496V743.76C977.237 744.72 977.445 745.568 977.861 746.304C978.293 747.024 978.885 747.592 979.637 748.008C980.405 748.408 981.277 748.608 982.253 748.608C983.021 748.608 983.733 748.472 984.389 748.2C985.061 747.928 985.637 747.512 986.117 746.952L987.077 748.056C986.517 748.728 985.813 749.24 984.965 749.592C984.133 749.944 983.213 750.12 982.205 750.12ZM994.721 750.12C993.681 750.12 992.697 749.976 991.769 749.688C990.841 749.384 990.113 749.008 989.585 748.56L990.353 747.216C990.865 747.6 991.521 747.936 992.321 748.224C993.121 748.496 993.961 748.632 994.841 748.632C996.041 748.632 996.905 748.448 997.433 748.08C997.961 747.696 998.225 747.192 998.225 746.568C998.225 746.104 998.073 745.744 997.769 745.488C997.481 745.216 997.097 745.016 996.617 744.888C996.137 744.744 995.601 744.624 995.009 744.528C994.417 744.432 993.825 744.32 993.233 744.192C992.657 744.064 992.129 743.88 991.649 743.64C991.169 743.384 990.777 743.04 990.473 742.608C990.185 742.176 990.041 741.6 990.041 740.88C990.041 740.192 990.233 739.576 990.617 739.032C991.001 738.488 991.561 738.064 992.297 737.76C993.049 737.44 993.961 737.28 995.033 737.28C995.849 737.28 996.665 737.392 997.481 737.616C998.297 737.824 998.969 738.104 999.497 738.456L998.753 739.824C998.193 739.44 997.593 739.168 996.953 739.008C996.313 738.832 995.673 738.744 995.033 738.744C993.897 738.744 993.057 738.944 992.513 739.344C991.985 739.728 991.721 740.224 991.721 740.832C991.721 741.312 991.865 741.688 992.153 741.96C992.457 742.232 992.849 742.448 993.329 742.608C993.825 742.752 994.361 742.872 994.937 742.968C995.529 743.064 996.113 743.184 996.689 743.328C997.281 743.456 997.817 743.64 998.297 743.88C998.793 744.104 999.185 744.432 999.473 744.864C999.777 745.28 999.929 745.832 999.929 746.52C999.929 747.256 999.721 747.896 999.305 748.44C998.905 748.968 998.313 749.384 997.529 749.688C996.761 749.976 995.825 750.12 994.721 750.12ZM1003.06 750V737.4H1004.76V750H1003.06ZM1003.92 734.616C1003.57 734.616 1003.27 734.496 1003.03 734.256C1002.79 734.016 1002.67 733.728 1002.67 733.392C1002.67 733.056 1002.79 732.776 1003.03 732.552C1003.27 732.312 1003.57 732.192 1003.92 732.192C1004.27 732.192 1004.57 732.304 1004.81 732.528C1005.05 732.752 1005.17 733.032 1005.17 733.368C1005.17 733.72 1005.05 734.016 1004.81 734.256C1004.58 734.496 1004.29 734.616 1003.92 734.616ZM1014.64 750.12C1013.42 750.12 1012.33 749.848 1011.35 749.304C1010.39 748.744 1009.63 747.984 1009.07 747.024C1008.51 746.048 1008.23 744.936 1008.23 743.688C1008.23 742.424 1008.51 741.312 1009.07 740.352C1009.63 739.392 1010.39 738.64 1011.35 738.096C1012.31 737.552 1013.41 737.28 1014.64 737.28C1015.89 737.28 1016.99 737.552 1017.95 738.096C1018.93 738.64 1019.69 739.392 1020.23 740.352C1020.79 741.312 1021.07 742.424 1021.07 743.688C1021.07 744.936 1020.79 746.048 1020.23 747.024C1019.69 747.984 1018.93 748.744 1017.95 749.304C1016.97 749.848 1015.87 750.12 1014.64 750.12ZM1014.64 748.608C1015.55 748.608 1016.36 748.408 1017.06 748.008C1017.77 747.592 1018.32 747.016 1018.72 746.28C1019.13 745.528 1019.34 744.664 1019.34 743.688C1019.34 742.696 1019.13 741.832 1018.72 741.096C1018.32 740.36 1017.77 739.792 1017.06 739.392C1016.36 738.976 1015.56 738.768 1014.66 738.768C1013.77 738.768 1012.97 738.976 1012.26 739.392C1011.56 739.792 1011 740.36 1010.58 741.096C1010.17 741.832 1009.96 742.696 1009.96 743.688C1009.96 744.664 1010.17 745.528 1010.58 746.28C1011 747.016 1011.56 747.592 1012.26 748.008C1012.97 748.408 1013.76 748.608 1014.64 748.608ZM1030.98 737.28C1032 737.28 1032.9 737.48 1033.67 737.88C1034.45 738.264 1035.06 738.856 1035.49 739.656C1035.94 740.456 1036.16 741.464 1036.16 742.68V750H1034.46V742.848C1034.46 741.52 1034.12 740.52 1033.45 739.848C1032.8 739.16 1031.87 738.816 1030.67 738.816C1029.77 738.816 1028.99 739 1028.32 739.368C1027.66 739.72 1027.15 740.24 1026.78 740.928C1026.43 741.6 1026.25 742.416 1026.25 743.376V750H1024.55V737.4H1026.18V740.856L1025.92 740.208C1026.32 739.296 1026.96 738.584 1027.84 738.072C1028.72 737.544 1029.76 737.28 1030.98 737.28Z" fill="white"/>
</svg>
